<?xml version="1.0" encoding="utf-8"?>
<!-- Generator: Adobe Illustrator 15.1.0, SVG Export Plug-In . SVG Version: 6.00 Build 0)  -->
<!DOCTYPE svg PUBLIC "-//W3C//DTD SVG 1.1//EN" "http://www.w3.org/Graphics/SVG/1.1/DTD/svg11.dtd">
<svg version="1.1" id="Layer_1" xmlns="http://www.w3.org/2000/svg" xmlns:xlink="http://www.w3.org/1999/xlink" x="0px" y="0px"
	 width="200px" height="215px" viewBox="0 0 200 215" enable-background="new 0 0 200 215" xml:space="preserve">
<g>
	<path fill="#AE9BE8" d="M125.344,192.083L125.344,192.083c0.521-0.183,0.796-0.753,0.614-1.274
		c-0.183-0.521-0.753-0.796-1.274-0.614l0,0c-0.521,0.183-0.796,0.753-0.614,1.274C124.252,191.989,124.822,192.265,125.344,192.083
		z"/>
	<path fill="#AE9BE8" d="M119.488,193.799L119.488,193.799c0.537-0.128,0.869-0.667,0.741-1.204s-0.668-0.869-1.205-0.741l0,0
		c-0.537,0.128-0.868,0.667-0.74,1.205C118.412,193.596,118.951,193.927,119.488,193.799z"/>
	<path fill="#AE9BE8" d="M113.479,194.901L113.479,194.901c0.548-0.07,0.936-0.572,0.864-1.12c-0.07-0.547-0.571-0.935-1.119-0.864
		l0,0c-0.548,0.07-0.935,0.572-0.864,1.12C112.431,194.584,112.932,194.972,113.479,194.901z"/>
	<path fill="#AE9BE8" d="M107.383,195.339L107.383,195.339c0.553-0.008,0.994-0.462,0.986-1.014
		c-0.008-0.553-0.463-0.994-1.015-0.986l0,0c-0.552,0.008-0.993,0.462-0.985,1.015C106.377,194.905,106.83,195.347,107.383,195.339z
		"/>
	<path fill="#AE9BE8" d="M101.27,195.052L101.27,195.052c0.549,0.061,1.043-0.336,1.104-0.885s-0.336-1.043-0.885-1.104
		s-1.043,0.335-1.104,0.884S100.721,194.991,101.27,195.052z"/>
	<path fill="#AE9BE8" d="M95.234,193.971L95.234,193.971c0.535,0.135,1.078-0.19,1.213-0.726c0.135-0.536-0.19-1.079-0.727-1.214
		l0,0c-0.535-0.135-1.078,0.19-1.213,0.727C94.373,193.293,94.698,193.837,95.234,193.971z"/>
	<path fill="#AE9BE8" d="M89.402,192.044L89.402,192.044c0.51,0.212,1.096-0.03,1.307-0.54c0.213-0.51-0.029-1.095-0.539-1.307l0,0
		c-0.51-0.212-1.096,0.029-1.308,0.539C88.65,191.247,88.893,191.832,89.402,192.044z"/>
	<g>
		<path opacity="0.1" fill="#AE9BE8" d="M174.887,108.007L174.887,108.007c0.553-0.006,0.995-0.459,0.989-1.011
			c-0.007-0.553-0.459-0.995-1.012-0.989l0,0c-0.552,0.006-0.994,0.459-0.988,1.012C173.882,107.57,174.335,108.013,174.887,108.007
			z"/>
		<path opacity="0.2" fill="#AE9BE8" d="M168.925,108.184L168.925,108.184c0.552-0.026,0.978-0.495,0.95-1.047
			c-0.026-0.552-0.495-0.978-1.047-0.95l0,0c-0.552,0.026-0.978,0.495-0.95,1.047C167.904,107.785,168.373,108.211,168.925,108.184z
			"/>
		<path opacity="0.3" fill="#AE9BE8" d="M162.979,108.588L162.979,108.588c0.551-0.049,0.957-0.534,0.909-1.084
			c-0.049-0.55-0.534-0.957-1.084-0.908l0,0c-0.55,0.048-0.957,0.533-0.908,1.083C161.943,108.229,162.429,108.636,162.979,108.588z
			"/>
		<path opacity="0.4" fill="#AE9BE8" d="M157.055,109.234L157.055,109.234c0.547-0.072,0.933-0.574,0.861-1.122
			c-0.072-0.547-0.574-0.933-1.122-0.861l0,0c-0.548,0.072-0.934,0.574-0.861,1.122S156.507,109.307,157.055,109.234z"/>
		<path opacity="0.5" fill="#AE9BE8" d="M151.173,110.151L151.173,110.151c0.543-0.099,0.903-0.619,0.805-1.163
			c-0.1-0.543-0.62-0.903-1.163-0.805l0,0c-0.543,0.099-0.903,0.619-0.805,1.163C150.108,109.89,150.629,110.25,151.173,110.151z"/>
		<path opacity="0.6" fill="#AE9BE8" d="M145.359,111.383L145.359,111.383c0.536-0.131,0.865-0.672,0.733-1.209
			c-0.131-0.536-0.672-0.864-1.209-0.733l0,0c-0.536,0.131-0.865,0.673-0.733,1.209
			C144.281,111.186,144.822,111.515,145.359,111.383z"/>
		<path opacity="0.7" fill="#AE9BE8" d="M139.661,113.002L139.661,113.002c0.524-0.173,0.81-0.738,0.638-1.263
			c-0.173-0.524-0.738-0.81-1.263-0.638l0,0c-0.524,0.173-0.81,0.738-0.638,1.263C138.571,112.889,139.137,113.175,139.661,113.002z
			"/>
		<path opacity="0.8" fill="#AE9BE8" d="M134.17,115.128L134.17,115.128c0.502-0.229,0.724-0.823,0.494-1.325
			c-0.23-0.503-0.823-0.724-1.325-0.494l0,0c-0.503,0.229-0.724,0.822-0.494,1.325C133.074,115.136,133.667,115.357,134.17,115.128z
			"/>
		<path opacity="0.9" fill="#AE9BE8" d="M129.097,117.965L129.097,117.965c0.453-0.315,0.564-0.938,0.249-1.392
			c-0.315-0.454-0.938-0.565-1.393-0.25l0,0c-0.453,0.315-0.564,0.939-0.249,1.393S128.644,118.28,129.097,117.965z"/>
		<path fill="#AE9BE8" d="M125.003,121.828L125.003,121.828c0.323-0.447,0.223-1.072-0.226-1.396
			c-0.447-0.323-1.072-0.223-1.396,0.225l0,0c-0.323,0.448-0.223,1.073,0.225,1.396C124.055,122.377,124.68,122.276,125.003,121.828
			z"/>
		<path fill="#AE9BE8" d="M123.173,126.819L123.173,126.819c0.024-0.552-0.402-1.019-0.954-1.043s-1.019,0.402-1.044,0.954l0,0
			c-0.024,0.552,0.403,1.019,0.955,1.044C122.682,127.799,123.148,127.371,123.173,126.819z"/>
		<path fill="#AE9BE8" d="M124.419,132.111L124.419,132.111c-0.243-0.496-0.842-0.701-1.338-0.458s-0.701,0.842-0.458,1.338l0,0
			c0.242,0.496,0.842,0.701,1.338,0.458C124.457,133.207,124.662,132.607,124.419,132.111z"/>
		<path fill="#AE9BE8" d="M127.65,136.834L127.65,136.834c-0.362-0.417-0.994-0.462-1.411-0.101
			c-0.417,0.362-0.462,0.994-0.101,1.411c0.362,0.417,0.993,0.462,1.411,0.101C127.967,137.883,128.012,137.252,127.65,136.834z"/>
		<path fill="#AE9BE8" d="M131.812,140.948L131.812,140.948c-0.417-0.362-1.049-0.317-1.411,0.099
			c-0.362,0.417-0.318,1.049,0.099,1.411l0,0c0.417,0.362,1.049,0.318,1.411-0.099S132.229,141.311,131.812,140.948z"/>
		<path fill="#AE9BE8" d="M136.449,144.61L136.449,144.61c-0.447-0.324-1.072-0.225-1.396,0.223s-0.225,1.072,0.223,1.396l0,0
			c0.447,0.324,1.072,0.225,1.396-0.223S136.896,144.935,136.449,144.61z"/>
		<path fill="#AE9BE8" d="M141.365,147.94L141.365,147.94c-0.466-0.297-1.084-0.159-1.381,0.307
			c-0.296,0.466-0.159,1.084,0.307,1.381l0,0c0.466,0.297,1.084,0.159,1.381-0.307S141.831,148.237,141.365,147.94z"/>
		<path fill="#AE9BE8" d="M146.355,151.53L146.355,151.53c-0.415-0.365-1.047-0.326-1.412,0.088s-0.325,1.046,0.089,1.412l0,0
			c0.414,0.365,1.046,0.325,1.411-0.089S146.77,151.896,146.355,151.53z"/>
		<path fill="#AE9BE8" d="M150.439,156.291L150.439,156.291c-0.289-0.471-0.905-0.618-1.376-0.33
			c-0.471,0.289-0.618,0.905-0.329,1.376l0,0c0.289,0.471,0.904,0.618,1.375,0.329S150.728,156.762,150.439,156.291z"/>
		<path fill="#AE9BE8" d="M152.631,162.263L152.631,162.263c-0.078-0.547-0.584-0.927-1.131-0.849
			c-0.547,0.077-0.928,0.584-0.85,1.131l0,0c0.078,0.547,0.584,0.927,1.131,0.849C152.328,163.316,152.708,162.81,152.631,162.263z"
			/>
		<path fill="#AE9BE8" d="M152.218,168.6L152.218,168.6c0.141-0.534-0.178-1.081-0.712-1.222s-1.081,0.178-1.222,0.712l0,0
			c-0.142,0.534,0.178,1.081,0.712,1.222C151.529,169.452,152.077,169.134,152.218,168.6z"/>
		<path fill="#AE9BE8" d="M149.708,174.34L149.708,174.34c0.288-0.472,0.14-1.087-0.331-1.375c-0.472-0.288-1.087-0.14-1.375,0.331
			c-0.288,0.472-0.14,1.087,0.331,1.375C148.805,174.959,149.42,174.811,149.708,174.34z"/>
		<path fill="#AE9BE8" d="M145.937,179.249L145.937,179.249c0.376-0.404,0.354-1.037-0.05-1.414
			c-0.403-0.376-1.036-0.354-1.413,0.05c-0.377,0.403-0.354,1.036,0.049,1.413C144.927,179.675,145.56,179.652,145.937,179.249z"/>
		<path fill="#AE9BE8" d="M141.406,183.402L141.406,183.402c0.433-0.343,0.506-0.972,0.163-1.405
			c-0.344-0.433-0.973-0.506-1.405-0.162l0,0c-0.433,0.343-0.506,0.972-0.163,1.404S140.973,183.745,141.406,183.402z"/>
		<path fill="#AE9BE8" d="M136.378,186.894L136.378,186.894c0.472-0.287,0.621-0.902,0.334-1.374
			c-0.288-0.472-0.903-0.621-1.375-0.334l0,0c-0.472,0.287-0.621,0.902-0.333,1.374
			C135.291,187.031,135.906,187.181,136.378,186.894z"/>
		<path fill="#AE9BE8" d="M130.994,189.779L130.994,189.779c0.5-0.234,0.716-0.83,0.48-1.33c-0.234-0.5-0.83-0.716-1.33-0.48l0,0
			c-0.5,0.234-0.715,0.83-0.48,1.33S130.494,190.014,130.994,189.779z"/>
		<path fill="#AE9BE8" d="M83.923,189.253L83.923,189.253c0.471,0.288,1.087,0.141,1.374-0.331c0.289-0.471,0.141-1.087-0.33-1.375
			l0,0c-0.472-0.288-1.088-0.14-1.375,0.331C83.303,188.35,83.451,188.965,83.923,189.253z"/>
		<g>
			
				<polygon fill="#FFFFFF" stroke="#AE9BE8" stroke-width="2" stroke-linecap="round" stroke-linejoin="round" stroke-miterlimit="2" points="
				65,136 40,150 65,164 90,150 			"/>
			<polygon fill="#FFFFFF" stroke="#AE9BE8" stroke-width="2" stroke-miterlimit="1" points="65,164 40,180 65,194 90,180 			"/>
			
				<polygon fill="#FFFFFF" stroke="#AE9BE8" stroke-width="2" stroke-linecap="round" stroke-linejoin="round" stroke-miterlimit="1" points="
				40,150 40,180 65,194 90,180 90,150 65,164 			"/>
			
				<polygon fill="#E9E1FF" stroke="#AE9BE8" stroke-width="2" stroke-linecap="round" stroke-linejoin="round" stroke-miterlimit="1" points="
				40,150 40,180 65,194 65,164 			"/>
		</g>
	</g>
</g>
</svg>
