<?xml version="1.0" encoding="utf-8"?>
<!-- Generator: Adobe Illustrator 15.1.0, SVG Export Plug-In . SVG Version: 6.00 Build 0)  -->
<!DOCTYPE svg PUBLIC "-//W3C//DTD SVG 1.1//EN" "http://www.w3.org/Graphics/SVG/1.1/DTD/svg11.dtd">
<svg version="1.1" xmlns="http://www.w3.org/2000/svg" xmlns:xlink="http://www.w3.org/1999/xlink" x="0px" y="0px" width="200px"
	 height="215px" viewBox="0 0 200 215" enable-background="new 0 0 200 215" xml:space="preserve">
<g id="build">
</g>
<g id="tweak">
	<g>
		<g>
			
				<polygon fill="#FFFFFF" stroke="#AE9BE8" stroke-width="2" stroke-linecap="round" stroke-linejoin="round" stroke-miterlimit="2" points="
				60,52 10,80 60,108 110,80 			"/>
			<polygon fill="#FFFFFF" stroke="#AE9BE8" stroke-width="2" stroke-miterlimit="1" points="60,108 4,100 60,133 115,100 			"/>
			
				<polygon fill="#FFFFFF" stroke="#AE9BE8" stroke-width="2" stroke-linecap="round" stroke-linejoin="round" stroke-miterlimit="1" points="
				10,80 4,100 60,133 115,100 110,80 60,108 			"/>
			
				<polygon fill="#E9E1FF" stroke="#AE9BE8" stroke-width="2" stroke-linecap="round" stroke-linejoin="round" stroke-miterlimit="1" points="
				10,80 4,100 60,133 60,108 			"/>
		</g>
		<ellipse fill="#AE9BE8" cx="90.5" cy="77.182" rx="4.673" ry="3.071"/>
		<path fill="#AE9BE8" d="M62,67.007V31.745c5.782-1.722,10-7.071,10-13.412c0-7.731-6.268-14-14-14c-7.732,0-14,6.268-14,14
			c0,6.34,4.218,11.689,10,13.412v35.263c-5.878,1.135-10.173,4.701-10.173,8.931c0,5.144,6.345,9.313,14.173,9.313
			c7.827,0,14.173-4.17,14.173-9.313C72.173,71.708,67.878,68.143,62,67.007z"/>
	</g>
</g>
<g id="control">
</g>
<g id="adapt">
</g>
</svg>
