<?xml version="1.0" encoding="utf-8"?>
<!-- Generator: Adobe Illustrator 15.1.0, SVG Export Plug-In . SVG Version: 6.00 Build 0)  -->
<!DOCTYPE svg PUBLIC "-//W3C//DTD SVG 1.1//EN" "http://www.w3.org/Graphics/SVG/1.1/DTD/svg11.dtd">
<svg version="1.1" xmlns="http://www.w3.org/2000/svg" xmlns:xlink="http://www.w3.org/1999/xlink" x="0px" y="0px" width="160px"
	 height="160px" viewBox="0 0 160 160" enable-background="new 0 0 160 160" xml:space="preserve">
<g id="logo">
	<g>
		<path fill="#EA534C" d="M151.459,24.544c-3.131-5.422-10.066-7.281-15.49-4.15L74.598,55.827c-3.635,2.098-5.658,5.905-5.662,9.82
			h-0.009v70.865c0,6.264,5.077,11.34,11.339,11.34c6.263,0,11.34-5.076,11.34-11.34V72.195l55.702-32.161
			C152.732,36.903,154.59,29.968,151.459,24.544z"/>
		<path fill="#8572B4" d="M90.651,70.195c0.092-0.21,0.171-0.426,0.25-0.642c0.052-0.141,0.108-0.28,0.154-0.421
			c0.06-0.186,0.107-0.376,0.158-0.566c0.047-0.178,0.099-0.355,0.137-0.534c0.033-0.156,0.056-0.315,0.083-0.474
			c0.037-0.217,0.075-0.433,0.1-0.651c0.015-0.139,0.021-0.28,0.031-0.421c0.018-0.238,0.034-0.475,0.036-0.712
			c0-0.042,0.006-0.083,0.006-0.126c0-0.11-0.013-0.217-0.017-0.326c-0.006-0.219-0.014-0.437-0.033-0.654
			c-0.016-0.185-0.041-0.366-0.065-0.547c-0.024-0.175-0.048-0.35-0.08-0.524c-0.039-0.209-0.085-0.414-0.135-0.619
			c-0.035-0.146-0.071-0.29-0.111-0.434c-0.061-0.215-0.13-0.425-0.203-0.634c-0.047-0.136-0.096-0.272-0.148-0.407
			c-0.079-0.201-0.164-0.397-0.254-0.592c-0.066-0.144-0.134-0.286-0.206-0.427c-0.089-0.174-0.183-0.344-0.281-0.513
			c-0.09-0.156-0.184-0.311-0.281-0.463c-0.094-0.146-0.192-0.288-0.292-0.428c-0.116-0.163-0.235-0.323-0.359-0.481
			c-0.1-0.125-0.203-0.246-0.307-0.367c-0.135-0.156-0.273-0.31-0.417-0.459c-0.116-0.119-0.235-0.234-0.355-0.348
			c-0.142-0.134-0.284-0.266-0.433-0.393c-0.148-0.127-0.302-0.247-0.457-0.366c-0.131-0.101-0.261-0.202-0.397-0.297
			c-0.196-0.138-0.399-0.265-0.604-0.391c-0.081-0.049-0.154-0.104-0.235-0.152L24.563,20.394
			c-5.423-3.131-12.357-1.272-15.489,4.15c-3.131,5.424-1.272,12.359,4.15,15.49l61.372,35.432c0.035,0.02,0.071,0.035,0.106,0.055
			c0.214,0.121,0.436,0.229,0.658,0.337c0.12,0.058,0.238,0.12,0.359,0.173c0.205,0.09,0.417,0.168,0.628,0.245
			c0.146,0.054,0.292,0.113,0.439,0.161c0.176,0.057,0.356,0.102,0.535,0.149c0.189,0.051,0.378,0.104,0.568,0.146
			c0.142,0.031,0.287,0.051,0.431,0.076c0.232,0.039,0.463,0.08,0.696,0.105c0.124,0.014,0.249,0.019,0.374,0.028
			c0.254,0.019,0.508,0.036,0.762,0.038c0.038,0,0.075,0.006,0.113,0.006c0.099,0,0.194-0.012,0.292-0.015
			c0.235-0.007,0.469-0.015,0.702-0.036c0.169-0.014,0.335-0.037,0.502-0.059c0.191-0.026,0.381-0.053,0.57-0.088
			c0.194-0.035,0.385-0.079,0.576-0.125c0.16-0.038,0.32-0.077,0.479-0.123c0.2-0.057,0.397-0.121,0.593-0.189
			c0.15-0.052,0.3-0.105,0.448-0.164c0.187-0.074,0.37-0.153,0.552-0.236c0.158-0.072,0.313-0.146,0.467-0.225
			c0.161-0.083,0.318-0.17,0.474-0.26c0.169-0.098,0.337-0.199,0.501-0.305c0.132-0.086,0.261-0.175,0.39-0.266
			c0.176-0.125,0.349-0.253,0.518-0.388c0.112-0.089,0.221-0.183,0.33-0.275c0.168-0.145,0.334-0.293,0.495-0.449
			c0.107-0.104,0.21-0.211,0.313-0.319c0.145-0.153,0.288-0.307,0.426-0.469c0.115-0.135,0.223-0.274,0.332-0.415
			c0.111-0.145,0.223-0.288,0.328-0.439c0.126-0.18,0.243-0.367,0.359-0.555c0.056-0.091,0.12-0.176,0.174-0.27
			c0.021-0.036,0.036-0.074,0.057-0.11c0.119-0.212,0.227-0.431,0.333-0.65C90.535,70.436,90.597,70.316,90.651,70.195z"/>
		<circle fill="#FFFFFF" cx="18.894" cy="30.214" r="2.835"/>
		<circle fill="#FFFFFF" cx="141.639" cy="30.214" r="2.835"/>
		<circle fill="#FFFFFF" cx="80.267" cy="136.513" r="2.835"/>
		<circle fill="#FFFFFF" cx="80.267" cy="65.646" r="2.835"/>
	</g>
	<g>
	</g>
</g>
<g id="swatch" display="none">
	<circle display="inline" fill="#8572B4" cx="-70.091" cy="-120.228" r="14.173"/>
	<circle display="inline" fill="#D5C3DF" cx="-70.091" cy="-163.451" r="14.173"/>
	<circle display="inline" fill="#EA534C" cx="-13.397" cy="-120.227" r="14.173"/>
	<circle display="inline" fill="#8BA39D" cx="42.92" cy="-120.227" r="14.173"/>
	<circle display="inline" fill="#B0AEA8" cx="98.621" cy="-120.227" r="14.173"/>
	<circle display="inline" fill="#CAC7C0" cx="154.322" cy="-120.227" r="14.173"/>
</g>
</svg>
