<?xml version="1.0" encoding="utf-8"?>
<!-- Generator: Adobe Illustrator 15.1.0, SVG Export Plug-In . SVG Version: 6.00 Build 0)  -->
<!DOCTYPE svg PUBLIC "-//W3C//DTD SVG 1.1//EN" "http://www.w3.org/Graphics/SVG/1.1/DTD/svg11.dtd">
<svg version="1.1" id="Layer_1" xmlns="http://www.w3.org/2000/svg" xmlns:xlink="http://www.w3.org/1999/xlink" x="0px" y="0px"
	 width="200px" height="300px" viewBox="0 0 200 300" enable-background="new 0 0 200 300" xml:space="preserve">
<g>
	<path opacity="0.1" fill="#AE9BE8" d="M171.598,98L171.598,98c0.552-0.003,0.997-0.454,0.994-1.006
		c-0.004-0.553-0.454-0.998-1.007-0.994l0,0c-0.552,0.003-0.997,0.454-0.993,1.006C170.595,97.559,171.045,98.003,171.598,98z"/>
	<path opacity="0.1" fill="#AE9BE8" d="M165.664,98.229L165.664,98.229c0.551-0.039,0.966-0.517,0.927-1.067
		c-0.038-0.551-0.517-0.966-1.067-0.928l0,0c-0.551,0.039-0.966,0.517-0.928,1.068C164.635,97.853,165.113,98.268,165.664,98.229z"
		/>
	<path opacity="0.2" fill="#AE9BE8" d="M159.749,98.823L159.749,98.823c0.548-0.071,0.934-0.573,0.862-1.121
		c-0.071-0.548-0.573-0.934-1.121-0.863l0,0c-0.547,0.071-0.934,0.573-0.862,1.121C158.699,98.508,159.201,98.895,159.749,98.823z"
		/>
	<path opacity="0.2" fill="#AE9BE8" d="M153.879,99.76L153.879,99.76c0.542-0.103,0.899-0.625,0.797-1.168
		c-0.103-0.542-0.626-0.899-1.168-0.797l0,0c-0.543,0.103-0.9,0.625-0.798,1.168C152.812,99.505,153.336,99.862,153.879,99.76z"/>
	<path opacity="0.3" fill="#AE9BE8" d="M148.07,101.028L148.07,101.028c0.536-0.133,0.862-0.675,0.729-1.211
		c-0.133-0.536-0.676-0.862-1.212-0.729c-0.535,0.133-0.862,0.676-0.729,1.212C146.991,100.835,147.534,101.162,148.07,101.028z"/>
	<path opacity="0.3" fill="#AE9BE8" d="M142.349,102.634L142.349,102.634c0.526-0.166,0.82-0.727,0.654-1.254
		c-0.165-0.527-0.726-0.82-1.253-0.655l0,0c-0.527,0.165-0.82,0.726-0.655,1.253S141.821,102.799,142.349,102.634z"/>
	<path opacity="0.4" fill="#AE9BE8" d="M136.744,104.592L136.744,104.592c0.516-0.199,0.771-0.779,0.57-1.294
		c-0.199-0.515-0.778-0.771-1.294-0.57l0,0c-0.515,0.2-0.77,0.779-0.57,1.294C135.65,104.536,136.229,104.792,136.744,104.592z"/>
	<path opacity="0.4" fill="#AE9BE8" d="M131.309,106.943L131.309,106.943c0.497-0.239,0.706-0.837,0.466-1.335
		c-0.239-0.497-0.837-0.706-1.335-0.466l0,0c-0.497,0.239-0.706,0.837-0.467,1.335C130.213,106.975,130.811,107.184,131.309,106.943
		z"/>
	<path opacity="0.5" fill="#AE9BE8" d="M126.126,109.76L126.126,109.76c0.47-0.29,0.616-0.905,0.327-1.376
		c-0.29-0.47-0.906-0.617-1.376-0.327l0,0c-0.471,0.289-0.617,0.905-0.327,1.376C125.039,109.902,125.655,110.049,126.126,109.76z"
		/>
	<path opacity="0.5" fill="#AE9BE8" d="M121.374,113.164L121.374,113.164c0.421-0.357,0.473-0.988,0.115-1.409
		c-0.357-0.422-0.988-0.473-1.409-0.115l0,0c-0.421,0.357-0.473,0.988-0.115,1.409S120.953,113.521,121.374,113.164z"/>
	<path opacity="0.6" fill="#AE9BE8" d="M117.49,117.351L117.49,117.351c0.311-0.457,0.192-1.079-0.265-1.39
		c-0.456-0.311-1.078-0.192-1.389,0.265c-0.312,0.456-0.192,1.078,0.264,1.389C116.558,117.925,117.18,117.807,117.49,117.351z"/>
	<path opacity="0.6" fill="#AE9BE8" d="M115.609,122.378L115.609,122.378c0.03-0.551-0.394-1.022-0.944-1.052
		c-0.552-0.029-1.022,0.394-1.053,0.945l0,0c-0.029,0.552,0.394,1.022,0.945,1.052S115.58,122.93,115.609,122.378z"/>
	<path opacity="0.7" fill="#AE9BE8" d="M117.134,127.394L117.134,127.394c-0.312-0.456-0.934-0.573-1.39-0.263
		c-0.456,0.312-0.573,0.934-0.262,1.391l0,0c0.312,0.456,0.934,0.573,1.39,0.262S117.445,127.85,117.134,127.394z"/>
	<path opacity="0.7" fill="#AE9BE8" d="M121.148,131.331L121.148,131.331c-0.448-0.324-1.073-0.224-1.396,0.224
		c-0.324,0.447-0.225,1.072,0.223,1.396l0,0c0.447,0.323,1.073,0.224,1.396-0.224C121.695,132.28,121.596,131.655,121.148,131.331z"
		/>
	<path opacity="0.8" fill="#AE9BE8" d="M126.162,134.284L126.162,134.284c-0.496-0.243-1.095-0.038-1.338,0.458
		s-0.038,1.096,0.458,1.338c0.496,0.243,1.096,0.038,1.338-0.458C126.863,135.126,126.658,134.527,126.162,134.284z"/>
	<path opacity="0.9" fill="#AE9BE8" d="M131.59,136.586L131.59,136.586c-0.519-0.191-1.094,0.072-1.285,0.591
		c-0.192,0.518,0.072,1.093,0.591,1.284l0,0c0.518,0.192,1.093-0.072,1.284-0.59C132.372,137.353,132.107,136.777,131.59,136.586z"
		/>
	<path fill="#AE9BE8" d="M137.229,138.448L137.229,138.448c-0.528-0.161-1.088,0.137-1.249,0.665
		c-0.16,0.527,0.137,1.087,0.665,1.248l0,0c0.528,0.161,1.088-0.137,1.248-0.665C138.055,139.168,137.758,138.609,137.229,138.448z"
		/>
	<path fill="#AE9BE8" d="M142.958,140.812L142.958,140.812c-0.482-0.269-1.091-0.095-1.359,0.388
		c-0.269,0.483-0.095,1.092,0.388,1.36l0,0c0.483,0.269,1.092,0.095,1.36-0.389C143.615,141.689,143.441,141.081,142.958,140.812
		L142.958,140.812z"/>
	<path fill="#AE9BE8" d="M147.865,144.856L147.865,144.856c-0.338-0.437-0.966-0.518-1.402-0.18
		c-0.438,0.338-0.519,0.966-0.181,1.402l0,0c0.338,0.438,0.966,0.519,1.402,0.181C148.122,145.922,148.203,145.294,147.865,144.856z
		"/>
	<path fill="#AE9BE8" d="M150.115,150.96L150.115,150.96c-0.023-0.552-0.489-0.98-1.041-0.958c-0.552,0.023-0.98,0.489-0.957,1.041
		l0,0c0.022,0.552,0.488,0.98,1.04,0.958C149.709,151.978,150.138,151.512,150.115,150.96z"/>
	<path fill="#AE9BE8" d="M148.811,157.212L148.811,157.212c0.221-0.506-0.011-1.096-0.517-1.316
		c-0.507-0.221-1.096,0.011-1.316,0.517l0,0c-0.221,0.506,0.01,1.096,0.517,1.316C148,157.949,148.59,157.718,148.811,157.212z"/>
	<path fill="#AE9BE8" d="M145.566,162.534L145.566,162.534c0.34-0.436,0.262-1.064-0.175-1.403
		c-0.436-0.339-1.063-0.261-1.403,0.175l0,0c-0.339,0.436-0.261,1.064,0.175,1.403C144.6,163.049,145.228,162.97,145.566,162.534z"
		/>
	<path fill="#AE9BE8" d="M141.395,167.058L141.395,167.058c0.403-0.377,0.425-1.01,0.048-1.413s-1.01-0.425-1.413-0.048l0,0
		c-0.404,0.378-0.425,1.011-0.048,1.414S140.991,167.436,141.395,167.058z"/>
	<path fill="#AE9BE8" d="M136.683,170.957L136.683,170.957c0.444-0.327,0.539-0.953,0.211-1.397
		c-0.327-0.445-0.954-0.54-1.398-0.212s-0.539,0.954-0.211,1.398C135.611,171.19,136.237,171.285,136.683,170.957z"/>
	<path fill="#AE9BE8" d="M131.601,174.329L131.601,174.329c0.475-0.283,0.629-0.897,0.346-1.371
		c-0.283-0.475-0.896-0.629-1.371-0.346l0,0c-0.474,0.283-0.629,0.896-0.346,1.371C130.513,174.457,131.127,174.612,131.601,174.329
		z"/>
	<path fill="#AE9BE8" d="M126.239,177.217L126.239,177.217c0.497-0.241,0.705-0.839,0.465-1.336s-0.838-0.705-1.335-0.465l0,0
		c-0.498,0.24-0.706,0.838-0.466,1.335C125.144,177.249,125.742,177.457,126.239,177.217z"/>
	<path fill="#AE9BE8" d="M120.65,179.629L120.65,179.629c0.516-0.197,0.774-0.775,0.578-1.291c-0.197-0.516-0.775-0.774-1.291-0.578
		l0,0c-0.517,0.197-0.774,0.775-0.578,1.291C119.557,179.566,120.135,179.825,120.65,179.629z"/>
	<path fill="#AE9BE8" d="M114.872,181.549L114.872,181.549c0.531-0.15,0.84-0.704,0.689-1.235c-0.151-0.531-0.704-0.84-1.235-0.688
		l0,0c-0.531,0.15-0.84,0.703-0.689,1.234C113.788,181.391,114.341,181.699,114.872,181.549z"/>
	<path fill="#AE9BE8" d="M108.936,182.937L108.936,182.937c0.543-0.1,0.902-0.621,0.803-1.164s-0.621-0.903-1.164-0.803l0,0
		c-0.543,0.1-0.902,0.62-0.803,1.164C107.871,182.677,108.393,183.036,108.936,182.937z"/>
	<path fill="#AE9BE8" d="M102.884,183.728L102.884,183.728c0.551-0.043,0.963-0.523,0.921-1.073
		c-0.042-0.551-0.522-0.964-1.073-0.921l0,0c-0.551,0.042-0.963,0.522-0.921,1.073C101.853,183.356,102.333,183.77,102.884,183.728z
		"/>
	<path fill="#AE9BE8" d="M96.771,183.836L96.771,183.836c0.552,0.023,1.019-0.404,1.042-0.956s-0.404-1.019-0.956-1.042l0,0
		c-0.552-0.024-1.018,0.403-1.042,0.955C95.791,183.345,96.219,183.812,96.771,183.836z"/>
	<path fill="#AE9BE8" d="M90.676,183.159L90.676,183.159c0.543,0.1,1.064-0.261,1.164-0.804c0.099-0.543-0.261-1.064-0.804-1.163
		l0,0c-0.543-0.1-1.064,0.261-1.164,0.804C89.773,182.539,90.133,183.061,90.676,183.159z"/>
	<path fill="#AE9BE8" d="M84.729,181.595L84.729,181.595c0.521,0.183,1.092-0.092,1.274-0.613s-0.092-1.092-0.614-1.274l0,0
		c-0.521-0.183-1.091,0.093-1.274,0.613C83.934,180.842,84.208,181.412,84.729,181.595z"/>
	<path fill="#AE9BE8" d="M79.106,179.075L79.106,179.075c0.482,0.269,1.092,0.095,1.36-0.388c0.269-0.483,0.095-1.092-0.388-1.36
		l0,0c-0.482-0.269-1.091-0.095-1.36,0.388S78.624,178.807,79.106,179.075z"/>
	<g>
		
			<polygon fill="#FFFFFF" stroke="#AE9BE8" stroke-width="2" stroke-linecap="round" stroke-linejoin="round" stroke-miterlimit="2" points="
			60,126 35,140 60,154 85,140 		"/>
		<polygon fill="#FFFFFF" stroke="#AE9BE8" stroke-width="2" stroke-miterlimit="1" points="60,154 35,170 60,184 85,170 		"/>
		
			<polygon fill="#FFFFFF" stroke="#AE9BE8" stroke-width="2" stroke-linecap="round" stroke-linejoin="round" stroke-miterlimit="1" points="
			35,140 35,170 60,184 85,170 85,140 60,154 		"/>
		
			<polygon fill="#E9E1FF" stroke="#AE9BE8" stroke-width="2" stroke-linecap="round" stroke-linejoin="round" stroke-miterlimit="1" points="
			35,140 35,170 60,184 60,154 		"/>
	</g>
</g>
</svg>
