<?xml version="1.0" encoding="utf-8"?>
<!-- Generator: Adobe Illustrator 15.1.0, SVG Export Plug-In . SVG Version: 6.00 Build 0)  -->
<!DOCTYPE svg PUBLIC "-//W3C//DTD SVG 1.1//EN" "http://www.w3.org/Graphics/SVG/1.1/DTD/svg11.dtd">
<svg version="1.1" id="Layer_1" xmlns="http://www.w3.org/2000/svg" xmlns:xlink="http://www.w3.org/1999/xlink" x="0px" y="0px"
	 width="200px" height="215px" viewBox="0 0 200 215" enable-background="new 0 0 200 215" xml:space="preserve">
<g>
	<path fill="#FFFFFF" stroke="#AE9BE8" stroke-width="2" stroke-linecap="round" stroke-linejoin="round" stroke-miterlimit="2" d="
		M111,120c0,1.104-0.896,2-2,2H8c-1.104,0-2-0.896-2-2V7c0-1.104,0.896-2,2-2h101c1.104,0,2,0.896,2,2V120z"/>
	
		<path fill="#FFFFFF" stroke="#AE9BE8" stroke-width="2" stroke-linecap="round" stroke-linejoin="round" stroke-miterlimit="2" stroke-dasharray="0,6" d="
		M39.667,71.333c-14.359,0-26,11.641-26,26"/>
	<path fill="#E9E1FF" stroke="#AE9BE8" stroke-width="2" stroke-linecap="round" stroke-linejoin="round" stroke-miterlimit="1" d="
		M43.347,84.754L40,79.029l-3.347,5.725C30.54,86.256,26,91.758,26,98.333c0,7.731,6.268,13.999,14,13.999
		c7.732,0,14-6.268,14-13.999C54,91.758,49.46,86.256,43.347,84.754z"/>
	<circle fill="none" stroke="#AE9BE8" stroke-width="2" stroke-miterlimit="10" cx="40" cy="98" r="7"/>
	
		<line fill="#FFFFFF" stroke="#AE9BE8" stroke-width="2" stroke-linecap="round" stroke-linejoin="round" stroke-miterlimit="2" x1="78" y1="15" x2="78" y2="111"/>
	
		<line fill="#FFFFFF" stroke="#AE9BE8" stroke-width="2" stroke-linecap="round" stroke-linejoin="round" stroke-miterlimit="2" x1="98" y1="15" x2="98" y2="111"/>
	<path fill="#E9E1FF" stroke="#AE9BE8" stroke-width="2" stroke-linecap="round" stroke-linejoin="round" stroke-miterlimit="1" d="
		M86,64c0,1.104-0.896,2-2,2H72c-1.104,0-2-0.896-2-2v-4c0-1.104,0.896-2,2-2h12c1.104,0,2,0.896,2,2V64z"/>
	<path fill="#E9E1FF" stroke="#AE9BE8" stroke-width="2" stroke-linecap="round" stroke-linejoin="round" stroke-miterlimit="1" d="
		M106,92c0,1.104-0.896,2-2,2H92c-1.104,0-2-0.896-2-2v-4c0-1.104,0.896-2,2-2h12c1.104,0,2,0.896,2,2V92z"/>
</g>
</svg>
