<?xml version="1.0" encoding="utf-8"?>
<!-- Generator: Adobe Illustrator 15.1.0, SVG Export Plug-In . SVG Version: 6.00 Build 0)  -->
<!DOCTYPE svg PUBLIC "-//W3C//DTD SVG 1.1//EN" "http://www.w3.org/Graphics/SVG/1.1/DTD/svg11.dtd">
<svg version="1.1" id="Layer_1" xmlns="http://www.w3.org/2000/svg" xmlns:xlink="http://www.w3.org/1999/xlink" x="0px" y="0px"
	 width="200px" height="225px" viewBox="0 0 200 225" enable-background="new 0 0 200 225" xml:space="preserve">
<g>
	<g>
		
			<polygon fill="#FFFFFF" stroke="#AE9BE8" stroke-width="2" stroke-linecap="round" stroke-linejoin="round" stroke-miterlimit="2" points="
			100,82.5 75,96.5 100,110.5 125,96.5 		"/>
		<polygon fill="#FFFFFF" stroke="#AE9BE8" stroke-width="2" stroke-miterlimit="1" points="100,110.5 75,126.5 100,140.5 
			125,126.5 		"/>
		
			<polygon fill="#FFFFFF" stroke="#AE9BE8" stroke-width="2" stroke-linecap="round" stroke-linejoin="round" stroke-miterlimit="1" points="
			75,96.5 75,126.5 100,140.5 125,126.5 125,96.5 100,110.5 		"/>
		
			<polygon fill="#E9E1FF" stroke="#AE9BE8" stroke-width="2" stroke-linecap="round" stroke-linejoin="round" stroke-miterlimit="1" points="
			75,96.5 75,126.5 100,140.5 100,110.5 		"/>
	</g>
	
		<line fill="#FFFFFF" stroke="#AE9BE8" stroke-width="2" stroke-linecap="round" stroke-linejoin="round" stroke-miterlimit="10" x1="100" y1="56" x2="100" y2="97"/>
	<g>
		<path fill="#AE9BE8" d="M85,45.875c0,0.023,0.004,0.035,0.006,0.05c0-0.006,0-0.014,0.001-0.017
			C85.004,45.897,85,45.853,85,45.875z"/>
		<path fill="#AE9BE8" d="M85,46h0.015c-0.005-0.021-0.007-0.051-0.009-0.075C85.003,45.953,85,46,85,46z"/>
		<path fill="#AE9BE8" d="M85.007,45.908c0.001,0.003,0.002,0.015,0.002,0.009C85.009,45.902,85.008,45.902,85.007,45.908z"/>
		<path fill="#AE9BE8" d="M105,32.865v-12.68c2.662-1.299,4.5-4.024,4.5-7.185c0-4.418-3.582-8-8-8s-8,3.582-8,8
			c0,3.544,2.308,6.545,5.5,7.596V37c4.694,0,8.5,3.806,8.5,8.5s-3.806,8.75-8.5,8.75S90.5,50,90.5,46h-0.025
			c-0.128-2-1.292-2.5-2.725-2.5S85.153,44,85.025,46h-0.011c0.004,0.019,0.009,0.035,0.011,0.062
			C85.291,53.562,91.437,59.531,99,59.531c7.732,0,14-6.283,14-14.016C113,39.934,109.726,35.113,105,32.865z"/>
	</g>
	<circle fill="#AE9BE8" cx="100" cy="94.5" r="4"/>
</g>
</svg>
