<?xml version="1.0" encoding="utf-8"?>
<!-- Generator: Adobe Illustrator 15.1.0, SVG Export Plug-In . SVG Version: 6.00 Build 0)  -->
<!DOCTYPE svg PUBLIC "-//W3C//DTD SVG 1.1//EN" "http://www.w3.org/Graphics/SVG/1.1/DTD/svg11.dtd">
<svg version="1.1" xmlns="http://www.w3.org/2000/svg" xmlns:xlink="http://www.w3.org/1999/xlink" x="0px" y="0px" width="200px"
	 height="215px" viewBox="0 0 200 215" enable-background="new 0 0 200 215" xml:space="preserve">
<g id="build">
</g>
<g id="tweak">
	<g>
		<path fill="#AE9BE8" d="M120.344,204.083L120.344,204.083c0.521-0.183,0.796-0.753,0.614-1.274
			c-0.183-0.521-0.753-0.796-1.274-0.614l0,0c-0.521,0.183-0.796,0.753-0.614,1.274
			C119.252,203.989,119.822,204.265,120.344,204.083z"/>
		<path fill="#AE9BE8" d="M114.488,205.799L114.488,205.799c0.537-0.128,0.869-0.667,0.741-1.204s-0.668-0.869-1.205-0.741l0,0
			c-0.537,0.128-0.868,0.667-0.74,1.205C113.412,205.596,113.951,205.927,114.488,205.799z"/>
		<path fill="#AE9BE8" d="M108.479,206.901L108.479,206.901c0.548-0.07,0.936-0.572,0.864-1.12c-0.07-0.547-0.571-0.935-1.119-0.864
			l0,0c-0.548,0.07-0.935,0.572-0.864,1.12C107.431,206.584,107.932,206.972,108.479,206.901z"/>
		<path fill="#AE9BE8" d="M102.383,207.339L102.383,207.339c0.553-0.008,0.994-0.462,0.986-1.014
			c-0.008-0.553-0.463-0.994-1.015-0.986l0,0c-0.552,0.008-0.993,0.462-0.985,1.015C101.377,206.905,101.83,207.347,102.383,207.339
			z"/>
		<path fill="#AE9BE8" d="M96.27,207.052L96.27,207.052c0.549,0.061,1.043-0.336,1.104-0.885s-0.336-1.043-0.885-1.104
			s-1.043,0.335-1.104,0.884S95.721,206.991,96.27,207.052z"/>
		<path fill="#AE9BE8" d="M90.234,205.971L90.234,205.971c0.535,0.135,1.078-0.19,1.213-0.726c0.135-0.536-0.19-1.079-0.727-1.214
			l0,0c-0.535-0.135-1.078,0.19-1.213,0.727C89.373,205.293,89.698,205.837,90.234,205.971z"/>
		<path fill="#AE9BE8" d="M84.402,204.044L84.402,204.044c0.51,0.212,1.095-0.03,1.307-0.54s-0.03-1.095-0.54-1.307l0,0
			c-0.51-0.212-1.095,0.029-1.307,0.539C83.65,203.247,83.892,203.832,84.402,204.044z"/>
		<g>
			<path opacity="0.1" fill="#AE9BE8" d="M169.887,120.007L169.887,120.007c0.553-0.006,0.995-0.459,0.989-1.011
				c-0.007-0.553-0.459-0.995-1.012-0.989l0,0c-0.552,0.006-0.994,0.459-0.988,1.012
				C168.882,119.57,169.335,120.013,169.887,120.007z"/>
			<path opacity="0.2" fill="#AE9BE8" d="M163.925,120.184L163.925,120.184c0.552-0.026,0.978-0.495,0.95-1.047
				c-0.026-0.552-0.495-0.978-1.047-0.95l0,0c-0.552,0.026-0.978,0.495-0.95,1.047C162.904,119.785,163.373,120.211,163.925,120.184
				z"/>
			<path opacity="0.3" fill="#AE9BE8" d="M157.979,120.588L157.979,120.588c0.551-0.049,0.957-0.534,0.909-1.084
				c-0.049-0.55-0.534-0.957-1.084-0.908l0,0c-0.55,0.048-0.957,0.533-0.908,1.083C156.943,120.229,157.429,120.636,157.979,120.588
				z"/>
			<path opacity="0.4" fill="#AE9BE8" d="M152.055,121.234L152.055,121.234c0.547-0.072,0.933-0.574,0.861-1.122
				c-0.072-0.547-0.574-0.933-1.122-0.861l0,0c-0.548,0.072-0.934,0.574-0.861,1.122S151.507,121.307,152.055,121.234z"/>
			<path opacity="0.5" fill="#AE9BE8" d="M146.173,122.151L146.173,122.151c0.543-0.099,0.903-0.619,0.805-1.163
				c-0.1-0.543-0.62-0.903-1.163-0.805l0,0c-0.543,0.099-0.903,0.619-0.805,1.163C145.108,121.89,145.629,122.25,146.173,122.151z"
				/>
			<path opacity="0.6" fill="#AE9BE8" d="M140.359,123.383L140.359,123.383c0.536-0.131,0.865-0.672,0.733-1.209
				c-0.131-0.536-0.672-0.864-1.209-0.733l0,0c-0.536,0.131-0.865,0.673-0.733,1.209
				C139.281,123.186,139.822,123.515,140.359,123.383z"/>
			<path opacity="0.7" fill="#AE9BE8" d="M134.661,125.002L134.661,125.002c0.524-0.173,0.81-0.738,0.638-1.263
				c-0.173-0.524-0.738-0.81-1.263-0.638l0,0c-0.524,0.173-0.81,0.738-0.638,1.263C133.571,124.889,134.137,125.175,134.661,125.002
				z"/>
			<path opacity="0.8" fill="#AE9BE8" d="M129.17,127.128L129.17,127.128c0.502-0.229,0.724-0.823,0.494-1.325
				c-0.23-0.503-0.823-0.724-1.325-0.494l0,0c-0.503,0.229-0.724,0.822-0.494,1.325C128.074,127.136,128.667,127.357,129.17,127.128
				z"/>
			<path opacity="0.9" fill="#AE9BE8" d="M124.097,129.965L124.097,129.965c0.453-0.315,0.564-0.938,0.249-1.392
				c-0.315-0.454-0.938-0.565-1.393-0.25l0,0c-0.453,0.315-0.564,0.939-0.249,1.393S123.644,130.28,124.097,129.965z"/>
			<path fill="#AE9BE8" d="M120.003,133.828L120.003,133.828c0.323-0.447,0.223-1.072-0.226-1.396
				c-0.447-0.323-1.072-0.223-1.396,0.225l0,0c-0.323,0.448-0.223,1.073,0.225,1.396
				C119.055,134.377,119.68,134.276,120.003,133.828z"/>
			<path fill="#AE9BE8" d="M118.173,138.819L118.173,138.819c0.024-0.552-0.402-1.019-0.954-1.043s-1.019,0.402-1.044,0.954l0,0
				c-0.024,0.552,0.403,1.019,0.955,1.044C117.682,139.799,118.148,139.371,118.173,138.819z"/>
			<path fill="#AE9BE8" d="M119.419,144.111L119.419,144.111c-0.243-0.496-0.842-0.701-1.338-0.458s-0.701,0.842-0.458,1.338l0,0
				c0.242,0.496,0.842,0.701,1.338,0.458C119.457,145.207,119.662,144.607,119.419,144.111z"/>
			<path fill="#AE9BE8" d="M122.65,148.834L122.65,148.834c-0.362-0.417-0.994-0.462-1.411-0.101
				c-0.417,0.362-0.462,0.994-0.101,1.411c0.362,0.417,0.993,0.462,1.411,0.101C122.967,149.883,123.012,149.252,122.65,148.834z"/>
			<path fill="#AE9BE8" d="M126.812,152.948L126.812,152.948c-0.417-0.362-1.049-0.317-1.411,0.099
				c-0.362,0.417-0.318,1.049,0.099,1.411l0,0c0.417,0.362,1.049,0.318,1.411-0.099S127.229,153.311,126.812,152.948z"/>
			<path fill="#AE9BE8" d="M131.449,156.61L131.449,156.61c-0.447-0.324-1.072-0.225-1.396,0.223s-0.225,1.072,0.223,1.396l0,0
				c0.447,0.324,1.072,0.225,1.396-0.223S131.896,156.935,131.449,156.61z"/>
			<path fill="#AE9BE8" d="M136.365,159.94L136.365,159.94c-0.466-0.297-1.084-0.159-1.381,0.307
				c-0.296,0.466-0.159,1.084,0.307,1.381l0,0c0.466,0.297,1.084,0.159,1.381-0.307S136.831,160.237,136.365,159.94z"/>
			<path fill="#AE9BE8" d="M141.355,163.53L141.355,163.53c-0.415-0.365-1.047-0.326-1.412,0.088s-0.325,1.046,0.089,1.412l0,0
				c0.414,0.365,1.046,0.325,1.411-0.089S141.77,163.896,141.355,163.53z"/>
			<path fill="#AE9BE8" d="M145.439,168.291L145.439,168.291c-0.289-0.471-0.905-0.618-1.376-0.33
				c-0.471,0.289-0.618,0.905-0.329,1.376l0,0c0.289,0.471,0.904,0.618,1.375,0.329S145.728,168.762,145.439,168.291z"/>
			<path fill="#AE9BE8" d="M147.631,174.263L147.631,174.263c-0.078-0.547-0.584-0.927-1.131-0.849
				c-0.547,0.077-0.928,0.584-0.85,1.131l0,0c0.078,0.547,0.584,0.927,1.131,0.849C147.328,175.316,147.708,174.81,147.631,174.263z
				"/>
			<path fill="#AE9BE8" d="M147.218,180.6L147.218,180.6c0.141-0.534-0.178-1.081-0.712-1.222s-1.081,0.178-1.222,0.712l0,0
				c-0.142,0.534,0.178,1.081,0.712,1.222C146.529,181.452,147.077,181.134,147.218,180.6z"/>
			<path fill="#AE9BE8" d="M144.708,186.34L144.708,186.34c0.288-0.472,0.14-1.087-0.331-1.375c-0.472-0.288-1.087-0.14-1.375,0.331
				c-0.288,0.472-0.14,1.087,0.331,1.375C143.805,186.959,144.42,186.811,144.708,186.34z"/>
			<path fill="#AE9BE8" d="M140.937,191.249L140.937,191.249c0.376-0.404,0.354-1.037-0.05-1.414
				c-0.403-0.376-1.036-0.354-1.413,0.05c-0.377,0.403-0.354,1.036,0.049,1.413C139.927,191.675,140.56,191.652,140.937,191.249z"/>
			<path fill="#AE9BE8" d="M136.406,195.402L136.406,195.402c0.433-0.343,0.506-0.972,0.163-1.405
				c-0.344-0.433-0.973-0.506-1.405-0.162l0,0c-0.433,0.343-0.506,0.972-0.163,1.404S135.973,195.745,136.406,195.402z"/>
			<path fill="#AE9BE8" d="M131.378,198.894L131.378,198.894c0.472-0.287,0.621-0.902,0.334-1.374
				c-0.288-0.472-0.903-0.621-1.375-0.334l0,0c-0.472,0.287-0.621,0.902-0.333,1.374
				C130.291,199.031,130.906,199.181,131.378,198.894z"/>
			<path fill="#AE9BE8" d="M125.994,201.779L125.994,201.779c0.5-0.234,0.716-0.83,0.48-1.33c-0.234-0.5-0.83-0.716-1.33-0.48l0,0
				c-0.5,0.234-0.715,0.83-0.48,1.33S125.494,202.014,125.994,201.779z"/>
			<path fill="#AE9BE8" d="M78.923,201.253L78.923,201.253c0.471,0.288,1.086,0.141,1.375-0.331c0.289-0.471,0.14-1.087-0.331-1.375
				l0,0c-0.471-0.288-1.087-0.14-1.375,0.331C78.303,200.35,78.452,200.965,78.923,201.253z"/>
			<g>
				
					<polygon fill="#FFFFFF" stroke="#AE9BE8" stroke-width="2" stroke-linecap="round" stroke-linejoin="round" stroke-miterlimit="2" points="
					60,148 35,162 60,176 85,162 				"/>
				<polygon fill="#FFFFFF" stroke="#AE9BE8" stroke-width="2" stroke-miterlimit="1" points="60,176 35,192 60,206 85,192 				"/>
				
					<polygon fill="#FFFFFF" stroke="#AE9BE8" stroke-width="2" stroke-linecap="round" stroke-linejoin="round" stroke-miterlimit="1" points="
					35,162 35,192 60,206 85,192 85,162 60,176 				"/>
				
					<polygon fill="#E9E1FF" stroke="#AE9BE8" stroke-width="2" stroke-linecap="round" stroke-linejoin="round" stroke-miterlimit="1" points="
					35,162 35,192 60,206 60,176 				"/>
			</g>
		</g>
	</g>
</g>
<g id="control">
</g>
<g id="adapt">
</g>
</svg>
