<?xml version="1.0" encoding="utf-8"?>
<!-- Generator: Adobe Illustrator 15.1.0, SVG Export Plug-In . SVG Version: 6.00 Build 0)  -->
<!DOCTYPE svg PUBLIC "-//W3C//DTD SVG 1.1//EN" "http://www.w3.org/Graphics/SVG/1.1/DTD/svg11.dtd">
<svg version="1.1" id="Layer_1" xmlns="http://www.w3.org/2000/svg" xmlns:xlink="http://www.w3.org/1999/xlink" x="0px" y="0px"
	 width="200px" height="300px" viewBox="0 0 200 300" enable-background="new 0 0 200 300" xml:space="preserve">
<g>
	<g>
		
			<polygon fill="#FFFFFF" stroke="#AE9BE8" stroke-width="2" stroke-linecap="round" stroke-linejoin="round" stroke-miterlimit="2" points="
			75,140 50,154 75,168 100,154 		"/>
		<polygon fill="#FFFFFF" stroke="#AE9BE8" stroke-width="2" stroke-miterlimit="1" points="75,168 50,184 75,198 100,184 		"/>
		
			<polygon fill="#FFFFFF" stroke="#AE9BE8" stroke-width="2" stroke-linecap="round" stroke-linejoin="round" stroke-miterlimit="1" points="
			50,154 50,184 75,198 100,184 100,154 75,168 		"/>
		
			<polygon fill="#E9E1FF" stroke="#AE9BE8" stroke-width="2" stroke-linecap="round" stroke-linejoin="round" stroke-miterlimit="1" points="
			50,154 50,184 75,198 75,168 		"/>
	</g>
	<g>
		
			<polygon fill="#FFFFFF" stroke="#AE9BE8" stroke-width="2" stroke-linecap="round" stroke-linejoin="round" stroke-miterlimit="2" points="
			125,140 100,154 125,168 150,154 		"/>
		<polygon fill="#FFFFFF" stroke="#AE9BE8" stroke-width="2" stroke-miterlimit="1" points="125,168 100,184 125,198 150,184 		"/>
		
			<polygon fill="#FFFFFF" stroke="#AE9BE8" stroke-width="2" stroke-linecap="round" stroke-linejoin="round" stroke-miterlimit="1" points="
			100,154 100,184 125,198 150,184 150,154 125,168 		"/>
		
			<polygon fill="#E9E1FF" stroke="#AE9BE8" stroke-width="2" stroke-linecap="round" stroke-linejoin="round" stroke-miterlimit="1" points="
			100,154 100,184 125,198 125,168 		"/>
	</g>
	<g>
		
			<polygon fill="#FFFFFF" stroke="#AE9BE8" stroke-width="2" stroke-linecap="round" stroke-linejoin="round" stroke-miterlimit="2" points="
			100,154 75,168 100,182 125,168 		"/>
		<polygon fill="#FFFFFF" stroke="#AE9BE8" stroke-width="2" stroke-miterlimit="1" points="100,182 75,198 100,212 125,198 		"/>
		
			<polygon fill="#FFFFFF" stroke="#AE9BE8" stroke-width="2" stroke-linecap="round" stroke-linejoin="round" stroke-miterlimit="1" points="
			75,168 75,198 100,212 125,198 125,168 100,182 		"/>
		
			<polygon fill="#E9E1FF" stroke="#AE9BE8" stroke-width="2" stroke-linecap="round" stroke-linejoin="round" stroke-miterlimit="1" points="
			75,168 75,198 100,212 100,182 		"/>
	</g>
</g>
</svg>
