<?xml version="1.0" encoding="utf-8"?>
<!-- Generator: Adobe Illustrator 15.1.0, SVG Export Plug-In . SVG Version: 6.00 Build 0)  -->
<!DOCTYPE svg PUBLIC "-//W3C//DTD SVG 1.1//EN" "http://www.w3.org/Graphics/SVG/1.1/DTD/svg11.dtd">
<svg version="1.1" id="Layer_1" xmlns="http://www.w3.org/2000/svg" xmlns:xlink="http://www.w3.org/1999/xlink" x="0px" y="0px"
	 width="200px" height="300px" viewBox="0 0 200 300" enable-background="new 0 0 200 300" xml:space="preserve">
<g>
	<path fill="#AE9BE8" d="M105,28.365V9c0-1.657-1.343-3-3-3s-3,1.343-3,3v23.5c4.694,0,8.5,3.806,8.5,8.5s-3.806,8.5-8.5,8.5
		s-8.5-3.806-8.5-8.5h-0.025c-0.128-1.399-1.292-2.5-2.725-2.5s-2.597,1.101-2.725,2.5H85c0,0.057,0.008,0.11,0.009,0.167
		C85.008,41.195,85,41.222,85,41.25c0,0.086,0.018,0.167,0.025,0.25C85.291,48.999,91.437,55,99,55c7.732,0,14-6.268,14-14
		C113,35.418,109.726,30.613,105,28.365z"/>
	<g>
		
			<polygon fill="#FFFFFF" stroke="#AE9BE8" stroke-width="2" stroke-linecap="round" stroke-linejoin="round" stroke-miterlimit="2" points="
			100,78 75,92 100,106 125,92 		"/>
		<polygon fill="#FFFFFF" stroke="#AE9BE8" stroke-width="2" stroke-miterlimit="1" points="100,106 75,122 100,136 125,122 		"/>
		
			<polygon fill="#FFFFFF" stroke="#AE9BE8" stroke-width="2" stroke-linecap="round" stroke-linejoin="round" stroke-miterlimit="1" points="
			75,92 75,122 100,136 125,122 125,92 100,106 		"/>
		
			<polygon fill="#E9E1FF" stroke="#AE9BE8" stroke-width="2" stroke-linecap="round" stroke-linejoin="round" stroke-miterlimit="1" points="
			75,92 75,122 100,136 100,106 		"/>
	</g>
	
		<line fill="#FFFFFF" stroke="#AE9BE8" stroke-width="2" stroke-linecap="round" stroke-linejoin="round" stroke-miterlimit="10" x1="100" y1="51" x2="100" y2="92"/>
	<circle fill="#AE9BE8" cx="101.5" cy="8.5" r="8"/>
	<circle fill="#AE9BE8" cx="100" cy="90" r="4"/>
</g>
</svg>
