<?xml version="1.0" encoding="utf-8"?>
<!-- Generator: Adobe Illustrator 15.1.0, SVG Export Plug-In . SVG Version: 6.00 Build 0)  -->
<!DOCTYPE svg PUBLIC "-//W3C//DTD SVG 1.1//EN" "http://www.w3.org/Graphics/SVG/1.1/DTD/svg11.dtd">
<svg version="1.1" id="tweak" xmlns="http://www.w3.org/2000/svg" xmlns:xlink="http://www.w3.org/1999/xlink" x="0px" y="0px"
	 width="200px" height="215px" viewBox="0 0 200 215" enable-background="new 0 0 200 215" xml:space="preserve">
<g>
	<g>
		
			<polygon fill="#FFFFFF" stroke="#AE9BE8" stroke-width="2" stroke-linecap="round" stroke-linejoin="round" stroke-miterlimit="2" points="
			120,95 95,109 120,123 145,109 		"/>
		<polygon fill="#FFFFFF" stroke="#AE9BE8" stroke-width="2" stroke-miterlimit="1" points="120,123 95,139 120,153 145,139 		"/>
		
			<polygon fill="#FFFFFF" stroke="#AE9BE8" stroke-width="2" stroke-linecap="round" stroke-linejoin="round" stroke-miterlimit="1" points="
			95,109 95,139 120,153 145,139 145,109 120,123 		"/>
		
			<polygon fill="#E9E1FF" stroke="#AE9BE8" stroke-width="2" stroke-linecap="round" stroke-linejoin="round" stroke-miterlimit="1" points="
			95,109 95,139 120,153 120,123 		"/>
	</g>
	<path fill="#AE9BFF" d="M167.75,169.5c-1.763,0-3.273,1.023-4.012,2.5H162v-8h4v-9.895l0.037,0.021l2.788-4.828L166,147.668v-5.312
		l0.037,0.021l2.788-4.828L166,135.918v-5.312l0.037,0.021l2.788-4.828L166,124.168v-5.312l0.037,0.021l2.788-4.828L166,112.418
		v-5.312l0.037,0.021l2.788-4.828L166,100.668V84h-48.25l-10,10H155v0.342l-2.778,4.81l2.778,1.604v5.336l-2.778,4.81l2.778,1.604
		v5.337l-2.778,4.81l2.778,1.604v5.337l-2.778,4.81l2.778,1.604v5.337l-2.778,4.81l2.778,1.604V154h-47.25l10,10H158v8h-2.238
		c-0.738-1.477-2.249-2.5-4.012-2.5c-2.485,0-4.5,2.015-4.5,4.5s2.015,4.5,4.5,4.5c1.763,0,3.273-1.023,4.012-2.5H158v2
		c0,1.104,0.896,2,2,2s2-0.896,2-2v-2h1.738c0.738,1.477,2.249,2.5,4.012,2.5c2.485,0,4.5-2.015,4.5-4.5S170.235,169.5,167.75,169.5
		z"/>
</g>
</svg>
