<svg xmlns="http://www.w3.org/2000/svg" width="160" height="160" viewBox="0 0 160 160"><path fill="#EA534C" d="M151.459 24.544c-3.131-5.422-10.066-7.281-15.49-4.15L74.598 55.827c-3.635 2.098-5.658 5.905-5.662 9.82h-.009v70.865c0 6.264 5.077 11.34 11.339 11.34 6.263 0 11.34-5.076 11.34-11.34V72.195l55.702-32.161c5.424-3.131 7.282-10.066 4.151-15.49z"/><path fill="#8572B4" d="M90.651 70.195c.092-.21.171-.426.25-.642.052-.141.108-.28.154-.421.06-.186.107-.376.158-.566.047-.178.099-.355.137-.534.033-.156.056-.315.083-.474.037-.217.075-.433.1-.651.015-.139.021-.28.031-.421.018-.238.034-.475.036-.712 0-.042.006-.083.006-.126 0-.11-.013-.217-.017-.326-.006-.219-.014-.437-.033-.654-.016-.185-.041-.366-.065-.547-.024-.175-.048-.35-.08-.524-.039-.209-.085-.414-.135-.619-.035-.146-.071-.29-.111-.434-.061-.215-.13-.425-.203-.634-.047-.136-.096-.272-.148-.407-.079-.201-.164-.397-.254-.592-.066-.144-.134-.286-.206-.427-.089-.174-.183-.344-.281-.513-.09-.156-.184-.311-.281-.463-.094-.146-.192-.288-.292-.428-.116-.163-.235-.323-.359-.481-.1-.125-.203-.246-.307-.367-.135-.156-.273-.31-.417-.459-.116-.119-.235-.234-.355-.348-.142-.134-.284-.266-.433-.393-.148-.127-.302-.247-.457-.366-.131-.101-.261-.202-.397-.297-.196-.138-.399-.265-.604-.391-.081-.049-.154-.104-.235-.152L24.563 20.394c-5.423-3.131-12.357-1.272-15.489 4.15-3.131 5.424-1.272 12.359 4.15 15.49l61.372 35.432c.035.02.071.035.106.055.214.121.436.229.658.337.12.058.238.12.359.173.205.09.417.168.628.245.146.054.292.113.439.161.176.057.356.102.535.149.189.051.378.104.568.146.142.031.287.051.431.076.232.039.463.08.696.105.124.014.249.019.374.028.254.019.508.036.762.038.038 0 .075.006.113.006.099 0 .194-.012.292-.015.235-.007.469-.015.702-.036.169-.014.335-.037.502-.059.191-.026.381-.053.57-.088.194-.035.385-.079.576-.125.16-.038.32-.077.479-.123.2-.057.397-.121.593-.189.15-.052.3-.105.448-.164.187-.074.37-.153.552-.236.158-.072.313-.146.467-.225.161-.083.318-.17.474-.26.169-.098.337-.199.501-.305.132-.086.261-.175.39-.266.176-.125.349-.253.518-.388.112-.089.221-.183.33-.275.168-.145.334-.293.495-.449.107-.104.21-.211.313-.319.145-.153.288-.307.426-.469.115-.135.223-.274.332-.415.111-.145.223-.288.328-.439.126-.18.243-.367.359-.555.056-.091.12-.176.174-.27.021-.036.036-.074.057-.11.119-.212.227-.431.333-.65.059-.119.121-.239.175-.36z"/><circle fill="#FFF" cx="18.894" cy="30.214" r="2.835"/><circle fill="#FFF" cx="141.639" cy="30.214" r="2.835"/><circle fill="#FFF" cx="80.267" cy="136.513" r="2.835"/><circle fill="#FFF" cx="80.267" cy="65.646" r="2.835"/></svg>