<?xml version="1.0" encoding="utf-8"?>
<!-- Generator: Adobe Illustrator 15.1.0, SVG Export Plug-In . SVG Version: 6.00 Build 0)  -->
<!DOCTYPE svg PUBLIC "-//W3C//DTD SVG 1.1//EN" "http://www.w3.org/Graphics/SVG/1.1/DTD/svg11.dtd">
<svg version="1.1" xmlns="http://www.w3.org/2000/svg" xmlns:xlink="http://www.w3.org/1999/xlink" x="0px" y="0px" width="200px"
	 height="215px" viewBox="0 0 200 215" enable-background="new 0 0 200 215" xml:space="preserve">
<g id="build">
</g>
<g id="tweak">
	<g>
		
			<polygon fill="#FFFFFF" stroke="#AE9BE8" stroke-width="2" stroke-linecap="round" stroke-linejoin="round" stroke-miterlimit="2" points="
			120,95 95,109 120,123 145,109 		"/>
		<polygon fill="#FFFFFF" stroke="#AE9BE8" stroke-width="2" stroke-miterlimit="1" points="120,123 95,139 120,153 145,139 		"/>
		
			<polygon fill="#FFFFFF" stroke="#AE9BE8" stroke-width="2" stroke-linecap="round" stroke-linejoin="round" stroke-miterlimit="1" points="
			95,109 95,139 120,153 145,139 145,109 120,123 		"/>
		
			<polygon fill="#E9E1FF" stroke="#AE9BE8" stroke-width="2" stroke-linecap="round" stroke-linejoin="round" stroke-miterlimit="1" points="
			95,109 95,139 120,153 120,123 		"/>
	</g>
	<g>
		<polygon fill="#AE9BFF" points="166,84 117.75,84 107.75,94 155,94 155,154 107.75,154 117.75,164 166,164 		"/>
		<rect x="150" y="172" fill="#AE9BFF" width="20" height="4"/>
		<circle fill="#AE9BFF" cx="167.75" cy="174" r="4.5"/>
		<circle fill="#AE9BFF" cx="151.75" cy="174" r="4.5"/>
		<path fill="#AE9BFF" d="M162,178v-17h-4v17c0,1.104,0.896,2,2,2S162,179.104,162,178z"/>
	</g>
	<rect x="155" y="98" fill="#E9E1FF" width="11" height="2"/>
	<rect x="155" y="103" fill="#E9E1FF" width="11" height="2"/>
	<rect x="155" y="108" fill="#E9E1FF" width="11" height="2"/>
	<rect x="155" y="113" fill="#E9E1FF" width="11" height="2"/>
	<rect x="155" y="118" fill="#E9E1FF" width="11" height="2"/>
	<rect x="155" y="123" fill="#E9E1FF" width="11" height="2"/>
	<rect x="155" y="128" fill="#E9E1FF" width="11" height="2"/>
	<rect x="155" y="133" fill="#E9E1FF" width="11" height="2"/>
	<rect x="155" y="138" fill="#E9E1FF" width="11" height="2"/>
	<rect x="155" y="143" fill="#E9E1FF" width="11" height="2"/>
	<rect x="155" y="148" fill="#E9E1FF" width="11" height="2"/>
</g>
<g id="control">
</g>
<g id="adapt">
</g>
</svg>
