<?xml version="1.0" encoding="utf-8"?>
<!-- Generator: Adobe Illustrator 15.1.0, SVG Export Plug-In . SVG Version: 6.00 Build 0)  -->
<!DOCTYPE svg PUBLIC "-//W3C//DTD SVG 1.1//EN" "http://www.w3.org/Graphics/SVG/1.1/DTD/svg11.dtd">
<svg version="1.1" id="Layer_1" xmlns="http://www.w3.org/2000/svg" xmlns:xlink="http://www.w3.org/1999/xlink" x="0px" y="0px"
	 width="200px" height="300px" viewBox="0 0 200 300" enable-background="new 0 0 200 300" xml:space="preserve">
<g>
	<path fill="#FFFFFF" stroke="#AE9BE8" stroke-width="2" stroke-linecap="round" stroke-linejoin="round" stroke-miterlimit="2" d="
		M164,42c0,1.104-0.896,2-2,2h-12c-1.104,0-2-0.896-2-2V30c0-1.104,0.896-2,2-2h12c1.104,0,2,0.896,2,2V42z"/>
	
		<polyline fill="none" stroke="#AE9BE8" stroke-width="2" stroke-linecap="round" stroke-linejoin="round" stroke-miterlimit="2" points="
		153,34 157,38.333 168.621,26 	"/>
	<path fill="#E9E1FF" stroke="#AE9BE8" stroke-width="2" stroke-linecap="round" stroke-linejoin="round" stroke-miterlimit="1" d="
		M164,16c0,1.104-0.896,2-2,2h-12c-1.104,0-2-0.896-2-2V4c0-1.104,0.896-2,2-2h12c1.104,0,2,0.896,2,2V16z"/>
</g>
</svg>
