<?xml version="1.0" encoding="utf-8"?>
<!-- Generator: Adobe Illustrator 15.1.0, SVG Export Plug-In . SVG Version: 6.00 Build 0)  -->
<!DOCTYPE svg PUBLIC "-//W3C//DTD SVG 1.1//EN" "http://www.w3.org/Graphics/SVG/1.1/DTD/svg11.dtd">
<svg version="1.1" id="customize" xmlns="http://www.w3.org/2000/svg" xmlns:xlink="http://www.w3.org/1999/xlink" x="0px" y="0px"
	 width="200px" height="300px" viewBox="0 0 200 300" enable-background="new 0 0 200 300" xml:space="preserve">
<g>
	<path fill="#FFFFFF" stroke="#AE9BE8" stroke-width="2" stroke-linecap="round" stroke-linejoin="round" stroke-miterlimit="2" d="
		M138,116c0,1.104-0.896,2-2,2H35c-1.104,0-2-0.896-2-2V3c0-1.104,0.896-2,2-2h101c1.104,0,2,0.896,2,2V116z"/>
	
		<path fill="#FFFFFF" stroke="#AE9BE8" stroke-width="2" stroke-linecap="round" stroke-linejoin="round" stroke-miterlimit="2" stroke-dasharray="0,6" d="
		M92.667,55.333c0-14.359-11.641-26-26-26c-14.359,0-26,11.641-26,26"/>
	<path fill="#FFFFFF" stroke="#AE9BE8" stroke-width="2" stroke-linecap="round" stroke-linejoin="round" stroke-miterlimit="2" d="
		M70.347,42.754L67,37.029l-3.347,5.725C57.54,44.256,53,49.758,53,56.333c0,7.731,6.268,13.999,14,13.999
		c7.732,0,14-6.268,14-13.999C81,49.758,76.46,44.256,70.347,42.754z"/>
	
		<circle fill="#FFFFFF" stroke="#AE9BE8" stroke-width="2" stroke-linecap="round" stroke-linejoin="round" stroke-miterlimit="2" cx="67" cy="56" r="7"/>
	
		<line fill="#FFFFFF" stroke="#AE9BE8" stroke-width="2" stroke-linecap="round" stroke-linejoin="round" stroke-miterlimit="2" x1="100" y1="41" x2="100" y2="107"/>
	
		<line fill="#FFFFFF" stroke="#AE9BE8" stroke-width="2" stroke-linecap="round" stroke-linejoin="round" stroke-miterlimit="2" x1="120" y1="41" x2="120" y2="107"/>
	<path fill="#FFFFFF" stroke="#AE9BE8" stroke-width="2" stroke-linecap="round" stroke-linejoin="round" stroke-miterlimit="2" d="
		M108,60c0,1.104-0.896,2-2,2H94c-1.104,0-2-0.896-2-2v-4c0-1.104,0.896-2,2-2h12c1.104,0,2,0.896,2,2V60z"/>
	<path fill="#FFFFFF" stroke="#AE9BE8" stroke-width="2" stroke-linecap="round" stroke-linejoin="round" stroke-miterlimit="2" d="
		M128,88c0,1.104-0.896,2-2,2h-12c-1.104,0-2-0.896-2-2v-4c0-1.104,0.896-2,2-2h12c1.104,0,2,0.896,2,2V88z"/>
	<path fill="#FFFFFF" stroke="#AE9BE8" stroke-width="2" stroke-linecap="round" stroke-linejoin="round" stroke-miterlimit="2" d="
		M164,42c0,1.104-0.896,2-2,2h-12c-1.104,0-2-0.896-2-2V30c0-1.104,0.896-2,2-2h12c1.104,0,2,0.896,2,2V42z"/>
	
		<polyline fill="none" stroke="#AE9BE8" stroke-width="2" stroke-linecap="round" stroke-linejoin="round" stroke-miterlimit="2" points="
		153,34 157,38.333 168.621,26 	"/>
	<path fill="#E9E1FF" stroke="#AE9BE8" stroke-width="2" stroke-linecap="round" stroke-linejoin="round" stroke-miterlimit="1" d="
		M164,16c0,1.104-0.896,2-2,2h-12c-1.104,0-2-0.896-2-2V4c0-1.104,0.896-2,2-2h12c1.104,0,2,0.896,2,2V16z"/>
</g>
</svg>
