<?xml version="1.0" standalone="no"?>
<!DOCTYPE svg PUBLIC "-//W3C//DTD SVG 20010904//EN"
 "http://www.w3.org/TR/2001/REC-SVG-20010904/DTD/svg10.dtd">
<svg version="1.0" xmlns="http://www.w3.org/2000/svg"
 width="700.000000pt" height="700.000000pt" viewBox="0 0 700.000000 700.000000"
 preserveAspectRatio="xMidYMid meet">
<metadata>
Created by potrace 1.11, written by Peter Selinger 2001-2013
</metadata>
<g transform="translate(0.000000,700.000000) scale(0.100000,-0.100000)"
fill="#000000" stroke="none">
<path d="M546 6269 c8 -17 36 -66 61 -108 25 -42 54 -91 65 -110 18 -32 325
-549 461 -776 32 -55 67 -113 77 -130 9 -16 108 -183 220 -370 111 -187 210
-353 220 -370 44 -78 82 -142 93 -160 23 -38 382 -642 725 -1220 52 -88 129
-218 171 -288 73 -123 85 -143 136 -232 l24 -40 -184 -310 c-101 -170 -193
-323 -203 -340 -11 -16 -65 -106 -119 -200 -55 -93 -151 -255 -213 -360 -62
-104 -141 -237 -175 -295 -34 -58 -83 -140 -108 -182 l-47 -78 700 0 699 0
207 347 c113 192 217 365 230 385 13 21 24 41 24 44 0 4 6 15 14 23 7 9 25 36
39 61 13 25 38 67 53 93 16 27 34 56 39 65 6 10 33 54 60 100 28 46 57 95 66
110 9 15 84 142 168 283 l151 257 -168 283 c-200 335 -524 882 -528 890 -1 3
312 5 696 5 l699 -1 78 130 c43 72 83 139 89 150 17 32 362 613 594 1000 26
44 114 193 195 330 82 138 210 354 285 480 75 127 180 303 233 392 54 89 97
165 97 168 0 3 -314 5 -698 5 l-698 0 -154 -261 c-85 -143 -162 -272 -170
-287 -9 -15 -23 -38 -32 -52 -8 -14 -87 -146 -175 -295 -88 -148 -324 -547
-525 -885 -201 -338 -397 -670 -437 -737 -40 -68 -75 -123 -79 -123 -4 0 -17
15 -28 33 -22 33 -339 565 -360 603 -6 11 -69 117 -139 235 -70 118 -136 228
-145 244 -10 17 -47 80 -83 140 -112 189 -177 299 -397 670 -117 198 -220 371
-229 385 -10 14 -42 67 -72 118 -30 51 -64 110 -76 130 -12 20 -27 47 -34 60
l-12 22 -699 0 -699 0 17 -31z"/>
</g>
</svg>
